<?xml version="1.0" standalone="no"?><!DOCTYPE svg PUBLIC "-//W3C//DTD SVG 1.1//EN" "http://www.w3.org/Graphics/SVG/1.1/DTD/svg11.dtd"><svg t="1630041767636" class="icon" viewBox="0 0 1024 1024" version="1.1" xmlns="http://www.w3.org/2000/svg" p-id="2039" xmlns:xlink="http://www.w3.org/1999/xlink" width="200" height="200"><defs><style type="text/css"></style></defs><path d="M0 0" p-id="2040"></path><path d="M512 34.133333c263.509333 0 477.866667 214.357333 477.866667 477.866667S775.509333 989.866667 512 989.866667 34.133333 775.509333 34.133333 512 248.490667 34.133333 512 34.133333z m0-34.133333C229.239467 0 0 229.239467 0 512s229.239467 512 512 512c282.794667 0 512-229.239467 512-512S794.7264 0 512 0z" p-id="2041"></path><path d="M501.930667 785.066667c-151.108267 0-274.056533-122.504533-274.056534-273.066667s121.617067-273.066667 271.0528-273.066667c89.122133 0 169.949867 43.52 221.764267 119.466667a17.066667 17.066667 0 0 1-4.5056 23.722667 16.9984 16.9984 0 0 1-23.688533-4.5056C647.133867 311.1936 576.6144 273.066667 498.926933 273.066667c-130.6624 0-236.919467 107.178667-236.919466 238.933333s107.6224 238.933333 239.9232 238.933333c65.672533 0 129.1264-27.204267 174.1824-74.683733a17.112178 17.112178 0 0 1 24.132266-0.648533c6.826667 6.417067 7.099733 17.271467 0.682667 24.132266-51.473067 54.237867-124.0064 85.333333-198.997333 85.333334z" p-id="2042"></path></svg>