<?xml version="1.0" standalone="no"?><!DOCTYPE svg PUBLIC "-//W3C//DTD SVG 1.1//EN" "http://www.w3.org/Graphics/SVG/1.1/DTD/svg11.dtd"><svg t="1630039356429" class="icon" viewBox="0 0 1024 1024" version="1.1" xmlns="http://www.w3.org/2000/svg" p-id="2844" xmlns:xlink="http://www.w3.org/1999/xlink" width="200" height="200"><defs><style type="text/css"></style></defs><path d="M497.12128 81.56928a25.6 25.6 0 0 1 29.75744 0c76.17792 54.41024 157.90592 94.1056 239.616 121.344 28.5568 9.51808 55.0272 16.7936 78.71232 22.10816 8.22272 1.84576 15.48544 3.31264 21.70112 4.43648a296.18176 296.18176 0 0 0 7.11168 1.20064A25.6 25.6 0 0 1 896 256c0 350.81984-124.64384 582.2976-373.9136 689.12896a25.6 25.6 0 0 1-20.1728 0C252.6464 838.30016 128 606.8224 128 256a25.6 25.6 0 0 1 21.98016-25.344c0.19712-0.0256 0.73472-0.10752 1.6-0.24832 1.536-0.24832 3.37664-0.5632 5.51168-0.9472 6.21568-1.1264 13.4784-2.59328 21.70112-4.43904 23.68512-5.31712 50.15552-12.59008 78.71232-22.10816 81.71008-27.2384 163.43808-66.93376 239.65184-121.3696l-0.03584 0.0256z m-223.42656 169.91744c-30.24384 10.08128-58.37056 17.80736-83.6864 23.49056-3.71968 0.83712-7.2704 1.60256-10.6496 2.304C184.10496 592.09728 294.98112 795.968 512 893.63712c217.01888-97.66912 327.89504-301.5424 332.64128-616.36096-3.3792-0.69888-6.92992-1.46432-10.6496-2.30144-25.31584-5.6832-53.44256-13.40928-83.6864-23.49056C669.30176 224.4864 588.3136 185.90464 512 133.63968c-76.3136 52.26496-157.30176 90.84672-238.30528 117.84704z m422.46656 91.76576c8.36608-11.39712 24.38656-13.85472 35.78624-5.4912 11.39712 8.36608 13.85472 24.38656 5.4912 35.78624l-204.8 279.04a25.6 25.6 0 0 1-34.59072 6.31552l-153.6-99.84c-11.8528-7.7056-15.21664-23.55968-7.51104-35.41504 7.7056-11.8528 23.55968-15.21664 35.41504-7.51104l133.31968 86.656 190.4896-259.54048z" fill="#979797" p-id="2845"></path></svg>